<svg width="24" height="24" viewBox="0 0 24 24" fill="none" xmlns="http://www.w3.org/2000/svg">
    <path fill-rule="evenodd" clip-rule="evenodd" d="M23.992 12c0 6.618-5.369 11.984-11.992 11.984C5.377 23.984.008 18.618.008 12 .008 5.38 5.378.016 12 .016 18.623.016 23.992 5.38 23.992 12zm-15.39 4.769H6.275c-.49 0-.731 0-.878-.094a.591.591 0 0 1-.268-.463c-.01-.173.112-.385.353-.81L11.23 5.282c.244-.43.368-.645.524-.725a.593.593 0 0 1 .536 0c.156.08.28.295.524.725l1.182 2.06.006.01c.264.462.398.696.456.941.065.268.065.55 0 .819-.059.247-.191.483-.46.95l-3.018 5.333-.007.014c-.266.464-.401.7-.588.878a1.757 1.757 0 0 1-.716.415c-.244.068-.518.068-1.066.068zm5.877 0h3.335c.492 0 .74 0 .887-.097a.59.59 0 0 0 .268-.466c.008-.168-.11-.371-.341-.77a4.663 4.663 0 0 1-.024-.042l-1.67-2.856-.02-.032c-.235-.397-.353-.597-.505-.674a.587.587 0 0 0-.533 0c-.154.08-.277.288-.522.71l-1.664 2.855-.006.01c-.244.42-.365.63-.357.802a.596.596 0 0 0 .268.466c.145.094.392.094.884.094z" fill="#C8C8C8"/>
</svg>
