<svg width="234" height="181" viewBox="0 0 234 181" fill="none" xmlns="http://www.w3.org/2000/svg">
    <g clip-path="url(#hx70bkx61a)">
        <path d="M198.091 16.118a193.17 193.17 0 0 0-47.63-14.75.724.724 0 0 0-.766.36c-2.056 3.654-4.335 8.42-5.93 12.165-17.986-2.689-35.879-2.689-53.496 0-1.596-3.83-3.957-8.511-6.023-12.164a.752.752 0 0 0-.766-.362 192.635 192.635 0 0 0-47.63 14.751.681.681 0 0 0-.313.269C5.2 61.642-3.11 105.784.967 149.379a.803.803 0 0 0 .304.547c20.015 14.677 39.403 23.587 58.431 29.493a.76.76 0 0 0 .82-.269c4.502-6.138 8.514-12.609 11.954-19.415a.74.74 0 0 0-.405-1.029c-6.364-2.411-12.424-5.35-18.254-8.687a.75.75 0 0 1-.074-1.243 100.476 100.476 0 0 0 3.626-2.837.725.725 0 0 1 .756-.102c38.296 17.459 79.755 17.459 117.599 0a.72.72 0 0 1 .765.093 93.894 93.894 0 0 0 3.635 2.846.749.749 0 0 1-.065 1.243 120.06 120.06 0 0 1-18.263 8.678.745.745 0 0 0-.396 1.038c3.514 6.796 7.526 13.268 11.944 19.406.185.259.517.37.821.278 19.12-5.906 38.508-14.816 58.523-29.493a.75.75 0 0 0 .304-.538c4.88-50.4-8.172-94.18-34.597-132.992a.596.596 0 0 0-.304-.278zM78.195 122.834c-11.53 0-21.03-10.569-21.03-23.55 0-12.98 9.316-23.55 21.03-23.55 11.806 0 21.214 10.663 21.03 23.55 0 12.981-9.316 23.55-21.03 23.55zm77.754 0c-11.529 0-21.03-10.569-21.03-23.55 0-12.98 9.316-23.55 21.03-23.55 11.806 0 21.214 10.663 21.029 23.55 0 12.981-9.223 23.55-21.029 23.55z" fill="#fff"/>
    </g>
    <defs>
        <clipPath id="hx70bkx61a">
            <path fill="#fff" d="M0 0h234v181H0z"/>
        </clipPath>
    </defs>
</svg>
