<svg width="181" height="181" viewBox="0 0 181 181" fill="none" xmlns="http://www.w3.org/2000/svg">
    <path fill-rule="evenodd" clip-rule="evenodd" d="M90.5 181c49.982 0 90.5-40.518 90.5-90.5S140.482 0 90.5 0 0 40.518 0 90.5 40.518 181 90.5 181zM43.568 77.936V92.72c0 19.264 3.752 33.656 11.256 43.176 7.616 9.408 19.88 14.112 36.792 14.112 9.52 0 18.032-2.072 25.536-6.216 7.504-4.144 12.992-10.304 16.464-18.48v-36.12h-34.44v19.488h14.448v8.064c-4.032 8.288-10.92 12.432-20.664 12.432-5.824 0-11.032-1.456-15.624-4.368-1.792-1.008-3.304-2.744-4.536-5.208a316.875 316.875 0 0 1-2.688-6.048c-.56-1.568-1.008-4.144-1.344-7.728a841.656 841.656 0 0 0-.504-7.896v-9.576c0-4.704.056-8.456.168-11.256.112-2.8.56-6.272 1.344-10.416s1.904-7.28 3.36-9.408c1.456-2.128 3.64-3.976 6.552-5.544 3.024-1.68 6.664-2.52 10.92-2.52 14.224 0 21.336 6.664 21.336 19.992h21.84c0-12.32-3.08-21.56-9.24-27.72-8.736-8.736-20.328-13.104-34.776-13.104-14.448 0-25.76 4.368-33.936 13.104-8.176 8.736-12.264 20.888-12.264 36.456z" fill="#fff"/>
</svg>
